<svg width="1028" height="1028" viewBox="0 0 1028 1028" fill="none" xmlns="http://www.w3.org/2000/svg">
<rect width="1028" height="1028" fill="white"/>
<path d="M104.82 662V618.543H116.783C124.758 618.543 130.292 617.485 133.385 615.369C136.477 613.253 138.268 610.242 138.756 606.336C139.407 602.267 139.732 597.465 139.732 591.932V408.338C139.732 400.525 138.43 394.91 135.826 391.492C133.385 387.911 127.363 386.121 117.76 386.121H106.285V342.664C109.378 342.664 115.237 342.745 123.863 342.908C132.652 342.908 142.011 342.99 151.939 343.152C162.031 343.152 170.413 343.152 177.086 343.152C181.48 343.152 186.607 343.152 192.467 343.152C198.489 343.152 204.755 343.152 211.266 343.152C217.939 342.99 224.612 342.908 231.285 342.908C238.121 342.745 244.55 342.664 250.572 342.664C250.572 342.664 251.874 346.733 254.479 354.871C257.245 362.846 260.826 373.507 265.221 386.854C269.615 400.2 274.417 414.848 279.625 430.799C284.996 446.587 290.286 462.456 295.494 478.406C300.702 494.194 305.504 508.761 309.898 522.107C314.456 535.454 318.036 546.196 320.641 554.334C323.408 562.309 324.791 566.297 324.791 566.297C326.093 561.577 328.209 554.66 331.139 545.545C334.068 536.43 337.486 525.932 341.393 514.051C345.462 502.007 349.775 489.311 354.332 475.965C359.052 462.456 363.691 448.947 368.248 435.438C372.968 421.928 377.363 409.152 381.432 397.107C385.663 384.9 389.326 374.077 392.418 364.637C395.673 355.197 398.033 347.872 399.498 342.664C405.357 342.664 411.868 342.745 419.029 342.908C426.354 342.908 433.759 342.99 441.246 343.152C448.733 343.152 455.813 343.152 462.486 343.152C469.322 343.152 475.182 343.152 480.064 343.152C485.436 343.152 492.597 343.152 501.549 343.152C510.663 342.99 519.29 342.908 527.428 342.908C535.566 342.745 540.774 342.664 543.053 342.664V386.121H530.602C520.51 386.121 514.407 387.586 512.291 390.516C510.338 393.283 509.361 397.433 509.361 402.967C509.361 403.13 509.361 406.792 509.361 413.953C509.361 421.115 509.361 430.473 509.361 442.029C509.361 453.423 509.361 465.955 509.361 479.627C509.524 493.299 509.605 506.971 509.605 520.643C509.605 534.314 509.605 546.847 509.605 558.24C509.605 569.633 509.605 578.829 509.605 585.828C509.605 592.664 509.605 596.082 509.605 596.082C509.605 604.871 510.826 610.812 513.268 613.904C515.709 616.997 521.894 618.543 531.822 618.543H543.785V662C531.578 662 519.452 661.919 507.408 661.756C495.527 661.593 481.529 661.512 465.416 661.512C451.581 661.512 440.27 661.593 431.48 661.756C422.691 661.919 413.333 662 403.404 662V618.543H413.414C424.482 618.543 431.318 615.857 433.922 610.486C436.526 604.952 437.828 597.221 437.828 587.293V381.482C437.828 381.482 437.096 383.436 435.631 387.342C434.329 391.085 432.701 395.561 430.748 400.77C428.958 405.815 427.33 410.291 425.865 414.197C424.563 417.941 423.912 419.812 423.912 419.812L337.486 662H292.564C290.611 656.792 287.438 648.003 283.043 635.633C278.648 623.263 273.603 608.94 267.906 592.664C262.21 576.225 256.269 559.135 250.084 541.395C243.899 523.654 237.877 506.564 232.018 490.125C226.321 473.686 221.275 459.282 216.881 446.912C212.649 434.542 209.557 425.753 207.604 420.545C207.604 420.545 206.871 418.673 205.406 414.93C204.104 411.023 202.558 406.548 200.768 401.502C198.977 396.294 197.35 391.818 195.885 388.074C194.42 384.168 193.688 382.215 193.688 382.215V596.814C193.688 606.417 194.99 612.439 197.594 614.881C200.361 617.322 206.383 618.543 215.66 618.543H227.379V662C218.102 662 208.987 661.919 200.035 661.756C191.246 661.593 180.423 661.512 167.564 661.512C153.893 661.512 142.499 661.593 133.385 661.756C124.27 661.919 114.749 662 104.82 662ZM768.883 668.348C735.029 668.348 706.383 663.79 682.945 654.676C659.671 645.398 640.872 632.947 626.549 617.322C612.226 601.535 601.809 583.712 595.299 563.855C588.788 543.999 585.533 523.328 585.533 501.844C585.533 468.152 592.776 438.937 607.262 414.197C621.747 389.458 641.36 370.333 666.1 356.824C690.839 343.315 718.671 336.561 749.596 336.561C766.523 336.561 783.124 339.002 799.4 343.885C815.676 348.768 829.104 356.255 839.684 366.346L840.66 343.641H895.104V440.809H845.299C840.904 422.254 832.115 408.175 818.932 398.572C805.911 388.807 788.984 383.924 768.15 383.924C737.226 383.924 713.788 394.666 697.838 416.15C682.05 437.472 674.156 466.525 674.156 503.309C674.156 541.232 682.701 570.366 699.791 590.711C717.044 610.893 742.109 620.984 774.986 620.984C790.611 620.984 803.469 618.787 813.561 614.393C823.814 609.835 828.941 603.325 828.941 594.861V555.555C828.941 549.533 827.965 545.464 826.012 543.348C824.221 541.069 820.885 539.767 816.002 539.441C811.282 539.116 804.609 538.953 795.982 538.953H780.602V501.6C794.111 501.6 807.132 501.681 819.664 501.844C832.197 502.007 845.624 502.088 859.947 502.088C868.574 502.088 878.176 502.088 888.756 502.088C899.335 501.925 910.484 501.762 922.203 501.6C922.203 504.367 922.122 508.029 921.959 512.586C921.959 516.98 921.878 521.456 921.715 526.014C921.715 530.408 921.715 534.07 921.715 537C913.414 537.977 906.985 539.116 902.428 540.418C898.033 541.557 894.941 543.266 893.15 545.545C891.523 547.661 890.628 550.753 890.465 554.822C890.465 557.426 890.139 563.693 889.488 573.621C888.837 583.387 888.023 594.21 887.047 606.092C886.233 617.811 885.501 628.146 884.85 637.098C866.783 648.979 847.74 657.199 827.721 661.756C807.864 666.15 788.251 668.348 768.883 668.348Z" fill="#131313"/>
</svg>
