<svg width="458" height="458" viewBox="0 0 458 458" fill="none" xmlns="http://www.w3.org/2000/svg">
<path d="M331.3 146.4L328 148.7L335 158.5C338.9 164 342.9 169.5 344 170.9C345 172.3 350.9 180.4 357.1 188.9C363.3 197.4 370.8 207.8 373.8 211.9C383.6 225.1 386.5 229.1 396 242.4C401.1 249.5 406.7 257.3 408.4 259.6C412.8 265.5 414.2 267.4 426.8 284.8C433 293.4 439 301.5 440 302.9C441 304.3 443.3 307.3 445 309.7L448.1 314L451.5 311.3C455.6 308.2 455.6 308.2 453.2 305.5C451.5 303.6 362.7 181.8 359 176.2C354.3 169.2 335.4 143.9 335 144C334.7 144 333 145.1 331.3 146.4Z" fill="#3C3C3C"/>
<path d="M0 231.4V313.9H82.5H165V231.4V148.9H82.5H0V231.4Z" fill="#087E8B"/>
<path d="M245.5 149.5C236.6 151.3 228.9 153.4 225.1 155.2C222.6 156.3 220.2 157.2 219.8 157.1C219.5 157 218.6 157.6 218 158.4C217.3 159.2 216.3 159.9 215.8 159.9C213.6 159.9 201.9 169.2 195.9 175.7C178.1 194.9 170.7 221.2 175.7 247.4C180.2 271.4 197 293.7 219.1 304.9C238.7 315 263.2 316.5 284.6 308.9C306.7 301.2 326.3 281.5 334.1 259.2C339.2 244.8 340.1 225.6 336.5 211.4C329 181.8 304.5 157.8 274.8 150.8C269.6 149.6 249.5 148.7 245.5 149.5Z" fill="#FF5A5F"/>
</svg>
